<svg width="64" height="50" viewBox="0 0 64 50" fill="none" xmlns="http://www.w3.org/2000/svg">
<path d="M61.2298 16.5503C59.5302 14.1864 58.3019 13.1187 55.7507 11.7046C54.0874 10.7824 52.6036 10.4652 49.5233 10.1314C47.8886 6.87544 44.6777 -1.09675 34.5321 0.126478C18.2532 2.08931 45.0224 9.92392 37.802 17.4237C36.1996 17.1643 21.4844 14.1878 16.3453 23.9357C8.98885 21.6973 2.24129 11.3237 0.25288 18.9246C-2.1228 28.0058 13.0958 32.6927 10.2148 39.0963C6.68974 46.931 8.99983 55.2153 18.5928 45.8117C26.4163 38.1431 31.7937 33.6379 45.1584 44.2855C59.9112 56.0391 55.7984 41.0295 51.0912 34.5176C46.3843 28.0058 53.5579 30.1434 55.2383 30.2442C59.1226 30.4771 68.6992 26.9378 61.2298 16.5503Z" fill="url(#paint0_linear_209_135)"/>
<defs>
<linearGradient id="paint0_linear_209_135" x1="64" y1="25" x2="0" y2="25" gradientUnits="userSpaceOnUse">
<stop offset="0.0961538" stop-color="#BF9A2C"/>
<stop offset="0.514423" stop-color="#60731D"/>
<stop offset="1" stop-color="#593825"/>
</linearGradient>
</defs>
</svg>
